<svg xmlns="http://www.w3.org/2000/svg" version="1.1" xmlns:xlink="http://www.w3.org/1999/xlink" xmlns:svgjs="http://svgjs.dev/svgjs" viewBox="0 0 800 800"><defs><linearGradient x1="50%" y1="0%" x2="50%" y2="100%" id="ffflurry-grad" gradientTransform="rotate(270)"><stop stop-color="hsl(238, 3%, 96%)" stop-opacity="1" offset="0%"></stop><stop stop-color="hsl(205, 69%, 60%)" stop-opacity="1" offset="45%"></stop><stop stop-color="hsl(205, 69%, 80%)" stop-opacity="1" offset="100%"></stop></linearGradient></defs><rect width="100%" height="100%" fill="hsl(238, 3%, 96%)"></rect><g fill="url(#ffflurry-grad)"><rect width="499" height="1" x="143.5" y="721.5" rx="0.5" transform="rotate(38, 393, 722)" opacity="0.61"></rect><rect width="378" height="1" x="49" y="73.5" rx="0.5" transform="rotate(38, 238, 74)" opacity="0.42"></rect><rect width="829" height="1" x="142.5" y="545.5" rx="0.5" transform="rotate(38, 557, 546)" opacity="0.85"></rect><rect width="764" height="1" x="-293" y="271.5" rx="0.5" transform="rotate(38, 89, 272)" opacity="0.58"></rect><rect width="904" height="1" x="111" y="156.5" rx="0.5" transform="rotate(38, 563, 157)" opacity="0.49"></rect><rect width="1012" height="1" x="-259" y="305.5" rx="0.5" transform="rotate(38, 247, 306)" opacity="0.36"></rect><rect width="952" height="1" x="229" y="628.5" rx="0.5" transform="rotate(38, 705, 629)" opacity="0.44"></rect><rect width="483" height="1" x="164.5" y="248.5" rx="0.5" transform="rotate(38, 406, 249)" opacity="0.35"></rect><rect width="580" height="1" x="-209" y="45.5" rx="0.5" transform="rotate(38, 81, 46)" opacity="0.08"></rect><rect width="468" height="1" x="-23" y="460.5" rx="0.5" transform="rotate(38, 211, 461)" opacity="0.20"></rect><rect width="273" height="1" x="-22.5" y="683.5" rx="0.5" transform="rotate(38, 114, 684)" opacity="0.71"></rect><rect width="803" height="1" x="-86.5" y="555.5" rx="0.5" transform="rotate(38, 315, 556)" opacity="0.13"></rect><rect width="255" height="1" x="-59.5" y="449.5" rx="0.5" transform="rotate(38, 68, 450)" opacity="0.75"></rect><rect width="652" height="1" x="-242" y="151.5" rx="0.5" transform="rotate(38, 84, 152)" opacity="0.11"></rect><rect width="527" height="1" x="211.5" y="391.5" rx="0.5" transform="rotate(38, 475, 392)" opacity="0.24"></rect><rect width="885" height="1" x="281.5" y="196.5" rx="0.5" transform="rotate(38, 724, 197)" opacity="0.56"></rect><rect width="1056" height="1" x="-165" y="110.5" rx="0.5" transform="rotate(38, 363, 111)" opacity="0.97"></rect></g></svg>